<?xml version="1.0" encoding="utf-8"?>
<!-- Generator: Adobe Illustrator 16.0.0, SVG Export Plug-In . SVG Version: 6.00 Build 0)  -->
<!DOCTYPE svg PUBLIC "-//W3C//DTD SVG 1.1//EN" "http://www.w3.org/Graphics/SVG/1.1/DTD/svg11.dtd">
<svg version="1.1" id="Layer_1" xmlns="http://www.w3.org/2000/svg" xmlns:xlink="http://www.w3.org/1999/xlink" x="0px" y="0px"
	 width="512px" height="512px" viewBox="256 256 512 512" enable-background="new 256 256 512 512" xml:space="preserve">
<g>
	<circle fill="#FFFFFF" cx="512" cy="512" r="256"/>
	<g>
		<path fill="#B3B3B3" d="M768,512c0-141.385-114.615-256-256-256S256,370.615,256,512c0,77.93,34.824,147.723,89.756,194.677
			c-0.156-0.36-0.229-0.552-0.229-0.552c0-5.746-0.008-9.039-0.014-10.821c0.028,0.95,0.099,0.521,0.253-7.67
			c1.876-100.294,16.146-129.209,117.964-147.585c0,0,14.493,18.465,48.268,18.465s48.265-18.465,48.265-18.465
			c102.941,18.578,116.393,47.93,118.026,150.93c0.104,6.59,0.159,7.73,0.186,7.143c-0.003,1.744-0.005,4.312-0.005,8.003
			c0,0-0.072,0.192-0.23,0.556C733.174,659.727,768,589.932,768,512z"/>
	</g>
	<path fill="#FFFFFF" d="M512,531.834c48.678,0,88.143-47.933,88.143-107.06c0-59.129-12.957-107.062-88.143-107.062
		c-75.186,0-88.146,47.933-88.146,107.062C423.854,483.901,463.319,531.834,512,531.834z"/>
	<path fill="#FFFFFF" d="M345.515,695.303C345.5,691.697,345.485,694.287,345.515,695.303L345.515,695.303z"/>
	<path fill="#FFFFFF" d="M678.477,698.119C678.525,697.132,678.493,691.271,678.477,698.119L678.477,698.119z"/>
</g>
</svg>
